<svg width="103" height="103" viewBox="0 0 103 103" fill="none" xmlns="http://www.w3.org/2000/svg">
<rect width="103" height="103" fill="black"/>
<path d="M43.3077 69.1529C30.2308 73.0764 30.2308 62.6136 25 61.3057ZM61.6154 77V66.8772C61.7135 65.6299 61.545 64.3761 61.1211 63.199C60.6972 62.0219 60.0277 60.9485 59.1569 60.0502C67.3692 59.1347 76 56.022 76 41.7402C75.9993 38.0882 74.5947 34.5763 72.0769 31.9313C73.2692 28.7362 73.1849 25.2046 71.8415 22.0701C71.8415 22.0701 68.7554 21.1546 61.6154 25.9413C55.6209 24.3165 49.3021 24.3165 43.3077 25.9413C36.1677 21.1546 33.0815 22.0701 33.0815 22.0701C31.7382 25.2046 31.6539 28.7362 32.8462 31.9313C30.3096 34.5959 28.9035 38.1396 28.9231 41.8187C28.9231 55.9958 37.5538 59.1085 45.7662 60.1287C44.9057 61.0179 44.2421 62.0784 43.8185 63.2412C43.3949 64.4039 43.2209 65.6428 43.3077 66.8772V77" fill="white"/>
<path d="M43.3077 69.1529C30.2308 73.0764 30.2308 62.6136 25 61.3057M61.6154 77V66.8772C61.7135 65.6299 61.545 64.3761 61.1211 63.199C60.6972 62.0219 60.0277 60.9485 59.1569 60.0502C67.3692 59.1347 76 56.022 76 41.7402C75.9993 38.0882 74.5947 34.5763 72.0769 31.9313C73.2692 28.7362 73.1849 25.2046 71.8415 22.0701C71.8415 22.0701 68.7554 21.1546 61.6154 25.9413C55.6209 24.3165 49.3021 24.3165 43.3077 25.9413C36.1677 21.1546 33.0815 22.0701 33.0815 22.0701C31.7382 25.2046 31.6539 28.7362 32.8462 31.9313C30.3096 34.5959 28.9035 38.1396 28.9231 41.8187C28.9231 55.9958 37.5538 59.1085 45.7662 60.1287C44.9057 61.0179 44.2421 62.0784 43.8185 63.2412C43.3949 64.4039 43.2209 65.6428 43.3077 66.8772V77H61.6154Z" stroke="white" stroke-width="2" stroke-linecap="round" stroke-linejoin="round"/>
</svg>
