<svg width="50" height="47" viewBox="0 0 50 47" fill="none" xmlns="http://www.w3.org/2000/svg">
<circle cx="35" cy="32" r="15" fill="#0F5EF5"/>
<g clip-path="url(#clip0_118_163)">
<path d="M25.317 0.0772923C24.2213 -0.238528 23.0805 0.399558 22.7647 1.49526L14.5147 30.3703C14.1989 31.466 14.837 32.6068 15.9327 32.9226C17.0284 33.2384 18.1692 32.6003 18.485 31.5046L26.735 2.62964C27.0508 1.53393 26.4127 0.393113 25.317 0.0772923ZM30.512 7.81811C29.7063 8.62378 29.7063 9.93218 30.512 10.7378L36.2676 16.4999L30.5055 22.2621C29.6999 23.0677 29.6999 24.3761 30.5055 25.1818C31.3112 25.9875 32.6196 25.9875 33.4252 25.1818L40.644 17.963C41.4497 17.1574 41.4497 15.849 40.644 15.0433L33.4252 7.82456C32.6196 7.01889 31.3112 7.01889 30.5055 7.82456L30.512 7.81811ZM10.7442 7.81811C9.93853 7.01245 8.63013 7.01245 7.82446 7.81811L0.605713 15.0369C-0.199951 15.8425 -0.199951 17.1509 0.605713 17.9566L7.82446 25.1753C8.63013 25.981 9.93853 25.981 10.7442 25.1753C11.5499 24.3697 11.5499 23.0613 10.7442 22.2556L4.98208 16.4999L10.7442 10.7378C11.5499 9.93218 11.5499 8.62378 10.7442 7.81811Z" fill="white"/>
</g>
<defs>
<clipPath id="clip0_118_163">
<rect width="41.25" height="33" fill="white"/>
</clipPath>
</defs>
</svg>
