<svg width="44" height="57" viewBox="0 0 44 57" fill="none" xmlns="http://www.w3.org/2000/svg">
<circle cx="29" cy="41.5" r="15" fill="#0F5EF5"/>
<path d="M1.05043 23.196V20.7692C2.44295 20.7692 3.40885 20.4915 3.94815 19.9361C4.48745 19.3807 4.7571 18.4832 4.7571 17.2436V14.5753C4.7571 13.0862 4.96236 11.8949 5.37287 11.0014C5.79143 10.0999 6.37098 9.41974 7.11151 8.96094C7.86009 8.50213 8.7455 8.19626 9.76776 8.04332C10.79 7.89039 11.9089 7.81392 13.1243 7.81392V11.6534C12.1745 11.6534 11.45 11.7782 10.951 12.0277C10.46 12.2692 10.1259 12.6475 9.94886 13.1626C9.77178 13.6697 9.68324 14.3137 9.68324 15.0945V18.62C9.68324 19.2318 9.57055 19.8153 9.34517 20.3707C9.11979 20.9181 8.70123 21.4051 8.08949 21.8317C7.47775 22.2502 6.6044 22.5843 5.46946 22.8338C4.33452 23.0753 2.86151 23.196 1.05043 23.196ZM13.1243 38.3729C11.9089 38.3729 10.79 38.2964 9.76776 38.1435C8.7455 37.9905 7.86009 37.6847 7.11151 37.2259C6.37098 36.767 5.79143 36.0869 5.37287 35.1854C4.96236 34.2919 4.7571 33.1006 4.7571 31.6115V28.9311C4.7571 27.6915 4.48745 26.794 3.94815 26.2386C3.40885 25.6832 2.44295 25.4055 1.05043 25.4055V22.9787C2.86151 22.9787 4.33452 23.1035 5.46946 23.353C6.6044 23.5945 7.47775 23.9285 8.08949 24.3551C8.70123 24.7737 9.11979 25.2607 9.34517 25.8161C9.57055 26.3634 9.68324 26.947 9.68324 27.5668V31.0923C9.68324 31.8651 9.77178 32.505 9.94886 33.0121C10.1259 33.5272 10.46 33.9055 10.951 34.147C11.45 34.3965 12.1745 34.5213 13.1243 34.5213V38.3729ZM1.05043 25.4055V20.7692H5.38494V25.4055H1.05043ZM34.6399 22.9787V25.4055C33.2554 25.4055 32.2895 25.6832 31.7422 26.2386C31.2029 26.794 30.9332 27.6915 30.9332 28.9311V31.6115C30.9332 33.1006 30.724 34.2919 30.3054 35.1854C29.8949 36.0869 29.3153 36.767 28.5668 37.2259C27.8262 37.6847 26.9448 37.9905 25.9226 38.1435C24.9084 38.2964 23.7895 38.3729 22.5661 38.3729V34.5213C23.5159 34.5213 24.2363 34.3965 24.7273 34.147C25.2263 33.9055 25.5644 33.5272 25.7415 33.0121C25.9186 32.505 26.0071 31.8651 26.0071 31.0923V27.5668C26.0071 26.947 26.1198 26.3634 26.3452 25.8161C26.5705 25.2607 26.9891 24.7737 27.6009 24.3551C28.2126 23.9285 29.0859 23.5945 30.2209 23.353C31.3558 23.1035 32.8288 22.9787 34.6399 22.9787ZM22.5661 7.81392C23.7895 7.81392 24.9084 7.89039 25.9226 8.04332C26.9448 8.19626 27.8262 8.50213 28.5668 8.96094C29.3153 9.41974 29.8949 10.0999 30.3054 11.0014C30.724 11.8949 30.9332 13.0862 30.9332 14.5753V17.2436C30.9332 18.4832 31.2029 19.3807 31.7422 19.9361C32.2895 20.4915 33.2554 20.7692 34.6399 20.7692V23.196C32.8288 23.196 31.3558 23.0753 30.2209 22.8338C29.0859 22.5843 28.2126 22.2502 27.6009 21.8317C26.9891 21.4051 26.5705 20.9181 26.3452 20.3707C26.1198 19.8153 26.0071 19.2318 26.0071 18.62V15.0945C26.0071 14.3137 25.9186 13.6697 25.7415 13.1626C25.5644 12.6475 25.2263 12.2692 24.7273 12.0277C24.2363 11.7782 23.5159 11.6534 22.5661 11.6534V7.81392ZM34.6399 20.7692V25.4055H30.3054V20.7692H34.6399Z" fill="white"/>
</svg>
