<svg width="322" height="348" viewBox="0 0 322 348" fill="none" xmlns="http://www.w3.org/2000/svg">
<path fill-rule="evenodd" clip-rule="evenodd" d="M159.135 347.856C163.381 336.852 167.226 323.86 170.238 309.677C176.053 282.293 177.42 256.795 174.759 240.114C169.504 230.2 164.002 223.498 158.929 221.242C153.8 223.576 148.213 230.522 142.87 240.785C140.346 257.182 141.669 281.763 147.262 308.1C150.432 323.028 154.566 336.602 159.135 347.856Z" fill="url(#paint0_linear_138_1424)"/>
<ellipse cx="158.83" cy="253.854" rx="17.1879" ry="35.9505" fill="url(#paint1_linear_138_1424)"/>
<path fill-rule="evenodd" clip-rule="evenodd" d="M189.861 226.665C180.457 224.006 169.853 222.511 158.635 222.511C147.695 222.511 137.339 223.933 128.11 226.469V245.818C137.339 243.282 147.695 241.86 158.635 241.86C169.853 241.86 180.457 243.355 189.861 246.014V226.665Z" fill="#242E22"/>
<path fill-rule="evenodd" clip-rule="evenodd" d="M126.453 223.444L126.453 136.472C126.103 136.463 125.752 136.458 125.4 136.458C104.177 136.458 86.9717 153.663 86.9717 174.886L86.9717 246.612C86.9717 248.79 87.1528 250.925 87.5008 253.004C97.381 241.217 110.703 231.118 126.453 223.444Z" fill="url(#paint2_linear_138_1424)"/>
<path fill-rule="evenodd" clip-rule="evenodd" d="M186.043 225.222L186.043 138.25C186.393 138.241 186.744 138.236 187.096 138.236C208.319 138.236 225.524 155.441 225.524 176.664L225.524 248.39C225.524 250.568 225.343 252.704 224.995 254.782C215.115 242.995 201.793 232.896 186.043 225.222Z" fill="url(#paint3_linear_138_1424)"/>
<path fill-rule="evenodd" clip-rule="evenodd" d="M118.891 139.811C115.043 154.915 112.327 172.213 111.186 190.7C110.309 204.908 110.438 218.578 111.431 231.226C116.425 227.836 121.819 224.752 127.56 222.013L126.598 139.302C126.265 139.289 125.93 139.281 125.594 139.277C123.302 139.251 121.062 139.435 118.891 139.811ZM205.077 193.361C206.236 208.853 206.224 223.673 205.211 237.202C198.924 232.411 191.942 228.102 184.387 224.363L183.425 141.652C183.758 141.647 184.093 141.647 184.429 141.651C188.947 141.703 193.284 142.569 197.298 144.108C201.024 158.875 203.748 175.592 205.077 193.361Z" fill="#421116"/>
<path fill-rule="evenodd" clip-rule="evenodd" d="M125.325 238.542C138.243 234.62 152.885 232.778 168.296 233.587C176.473 234.016 184.355 235.165 191.812 236.933C200.388 217.204 204.784 184.915 202.502 148.845C199.748 105.294 188.039 68.5447 173.677 53.3112C169.597 48.0566 164.942 44.986 159.858 44.6107C138.634 43.0443 117.961 89.0459 113.685 147.358C110.901 185.311 115.749 219.125 125.325 238.542Z" fill="url(#paint4_linear_138_1424)"/>
<path fill-rule="evenodd" clip-rule="evenodd" d="M202.83 155.002C202.743 152.963 202.634 150.91 202.503 148.845C202.156 143.348 201.665 137.961 201.045 132.711C187.551 131.177 173.11 130.346 158.1 130.346C143.08 130.346 128.632 131.178 115.13 132.713C114.535 137.491 114.051 142.38 113.686 147.358C113.497 149.932 113.343 152.487 113.224 155.02C127.269 153.343 142.371 152.431 158.1 152.431C173.774 152.431 188.827 153.336 202.83 155.002ZM113.363 183.974C112.941 176.925 112.805 169.55 112.98 161.939C127.996 159.987 144.294 158.918 161.326 158.918C175.877 158.918 189.892 159.698 203.03 161.143C203.198 168.746 203.066 176.123 202.66 183.187C189.629 181.768 175.74 181.002 161.326 181.002C144.439 181.002 128.273 182.053 113.363 183.974Z" fill="url(#paint5_radial_138_1424)"/>
<ellipse cx="159.634" cy="166.202" rx="8.29489" ry="27.8224" fill="url(#paint6_linear_138_1424)"/>
<path d="M167.929 166.068C167.929 177.082 167.714 187.988 167.297 198.163C166.88 208.339 166.269 217.585 165.499 225.373C164.729 233.161 163.814 239.339 162.808 243.554C161.802 247.769 160.723 249.938 159.634 249.938C158.544 249.938 157.466 247.769 156.459 243.554C155.453 239.339 154.539 233.161 153.768 225.373C152.998 217.585 152.387 208.339 151.97 198.163C151.553 187.988 151.339 177.082 151.339 166.068L159.634 166.068H167.929Z" fill="url(#paint7_linear_138_1424)"/>
<g filter="url(#filter0_d_138_1424)">
<circle cx="157.97" cy="94.4781" r="30.448" fill="#C4C4C4"/>
<g filter="url(#filter1_i_138_1424)">
<circle cx="158.022" cy="94.5302" r="23.5" fill="#6CCAD7"/>
</g>
<mask id="mask0_138_1424" style="mask-type:alpha" maskUnits="userSpaceOnUse" x="134" y="70" width="48" height="48">
<circle cx="157.842" cy="94.2538" r="23.6803" fill="#6CCAD7"/>
</mask>
<g mask="url(#mask0_138_1424)">
<mask id="path-14-inside-1_138_1424" fill="white">
<path d="M161.128 123.857L164.637 122.33C165.059 122.136 165.651 121.13 164.637 120.57L161.128 118.979C160.716 118.873 159.993 119.509 160.612 120.146L162.986 121.206C163.117 121.253 163.302 121.383 162.986 121.524L160.612 122.585C160.303 122.797 160.2 123.751 161.128 123.857Z"/>
<path d="M164.74 109.435C158.549 114.44 152.392 111.52 150.087 109.435L146.528 111.821L142.968 114.207C142.589 114.56 141.771 115.607 141.523 116.964L139.872 125.766H155.144L158.342 116.434C158.755 115.904 159.581 115.692 159.684 116.964L156.691 125.766H174.13L172.995 116.964C172.582 115.607 171.653 114.56 171.241 114.207L164.74 109.435Z"/>
<path d="M151.635 108.586C156.588 111.301 161.06 109.717 162.676 108.586L160.716 106.783C160.647 106.253 160.55 105.065 160.716 104.556C161.403 104.203 163.109 102.965 164.43 100.844L167.113 96.3902L167.423 95.3297L167.732 95.2237V92.3603L167.423 92.0421L166.804 91.2998C166.872 91.017 167.154 90.4302 167.732 90.3453C167.939 90.3453 168.516 90.4938 169.177 91.0877C169.116 91.0343 169.28 89.603 168.867 88.8606L167.423 86.7396C167.555 86.3306 168.065 85.5864 169.064 85.7617C169.101 85.7682 169.138 85.776 169.177 85.7851H169.59L169.064 84.6186C168.757 83.9823 167.712 82.4127 165.978 81.2249C165.531 80.8007 164.141 79.9523 162.16 79.9523H158.136L157.723 80.1644L157.414 80.2705H156.279C156.21 79.8816 156.279 79.0403 157.104 78.7858C157.93 78.5312 157.448 78.4676 157.104 78.4676L156.175 78.2555C155.419 78.1848 153.637 78.107 152.564 78.3616C151.222 78.6797 149.262 81.1189 149.262 82.8157L148.849 83.1338L148.436 82.8157C147.955 82.7096 146.847 82.5612 146.27 82.8157C145.692 83.0702 146.029 83.2752 146.27 83.3459C146.614 83.4873 147.301 83.9398 147.301 84.6186C147.336 84.8307 147.384 85.2973 147.301 85.467C147.219 85.6367 147.061 85.6084 146.992 85.573C146.201 86.174 144.619 87.4819 144.619 87.9061C144.619 88.3303 144.894 88.0829 145.031 87.9061C146.187 87.5668 147.026 88.5425 147.301 89.0727V91.2998L146.786 92.0421L146.476 92.3603V95.2237L146.786 95.3297L146.992 96.3902L149.778 100.844C150.603 102.372 152.53 103.955 153.389 104.556C153.72 105.15 153.527 106.288 153.389 106.783L151.635 108.586Z"/>
<path d="M153.227 118.979L149.719 120.506C149.296 120.701 148.705 121.707 149.719 122.267L153.227 123.857C153.64 123.964 154.362 123.327 153.743 122.691L151.37 121.63C151.238 121.583 151.053 121.454 151.37 121.312L153.743 120.252C154.053 120.04 154.156 119.085 153.227 118.979Z"/>
</mask>
<path d="M161.128 123.857L164.637 122.33C165.059 122.136 165.651 121.13 164.637 120.57L161.128 118.979C160.716 118.873 159.993 119.509 160.612 120.146L162.986 121.206C163.117 121.253 163.302 121.383 162.986 121.524L160.612 122.585C160.303 122.797 160.2 123.751 161.128 123.857Z" fill="#D9D9D9"/>
<path d="M164.74 109.435C158.549 114.44 152.392 111.52 150.087 109.435L146.528 111.821L142.968 114.207C142.589 114.56 141.771 115.607 141.523 116.964L139.872 125.766H155.144L158.342 116.434C158.755 115.904 159.581 115.692 159.684 116.964L156.691 125.766H174.13L172.995 116.964C172.582 115.607 171.653 114.56 171.241 114.207L164.74 109.435Z" fill="#D9D9D9"/>
<path d="M151.635 108.586C156.588 111.301 161.06 109.717 162.676 108.586L160.716 106.783C160.647 106.253 160.55 105.065 160.716 104.556C161.403 104.203 163.109 102.965 164.43 100.844L167.113 96.3902L167.423 95.3297L167.732 95.2237V92.3603L167.423 92.0421L166.804 91.2998C166.872 91.017 167.154 90.4302 167.732 90.3453C167.939 90.3453 168.516 90.4938 169.177 91.0877C169.116 91.0343 169.28 89.603 168.867 88.8606L167.423 86.7396C167.555 86.3306 168.065 85.5864 169.064 85.7617C169.101 85.7682 169.138 85.776 169.177 85.7851H169.59L169.064 84.6186C168.757 83.9823 167.712 82.4127 165.978 81.2249C165.531 80.8007 164.141 79.9523 162.16 79.9523H158.136L157.723 80.1644L157.414 80.2705H156.279C156.21 79.8816 156.279 79.0403 157.104 78.7858C157.93 78.5312 157.448 78.4676 157.104 78.4676L156.175 78.2555C155.419 78.1848 153.637 78.107 152.564 78.3616C151.222 78.6797 149.262 81.1189 149.262 82.8157L148.849 83.1338L148.436 82.8157C147.955 82.7096 146.847 82.5612 146.27 82.8157C145.692 83.0702 146.029 83.2752 146.27 83.3459C146.614 83.4873 147.301 83.9398 147.301 84.6186C147.336 84.8307 147.384 85.2973 147.301 85.467C147.219 85.6367 147.061 85.6084 146.992 85.573C146.201 86.174 144.619 87.4819 144.619 87.9061C144.619 88.3303 144.894 88.0829 145.031 87.9061C146.187 87.5668 147.026 88.5425 147.301 89.0727V91.2998L146.786 92.0421L146.476 92.3603V95.2237L146.786 95.3297L146.992 96.3902L149.778 100.844C150.603 102.372 152.53 103.955 153.389 104.556C153.72 105.15 153.527 106.288 153.389 106.783L151.635 108.586Z" fill="#D9D9D9"/>
<path d="M161.128 123.857L164.637 122.33C165.059 122.136 165.651 121.13 164.637 120.57L161.128 118.979C160.716 118.873 159.993 119.509 160.612 120.146L162.986 121.206C163.117 121.253 163.302 121.383 162.986 121.524L160.612 122.585C160.303 122.797 160.2 123.751 161.128 123.857Z" stroke="black" mask="url(#path-14-inside-1_138_1424)"/>
<path d="M164.74 109.435C158.549 114.44 152.392 111.52 150.087 109.435L146.528 111.821L142.968 114.207C142.589 114.56 141.771 115.607 141.523 116.964L139.872 125.766H155.144L158.342 116.434C158.755 115.904 159.581 115.692 159.684 116.964L156.691 125.766H174.13L172.995 116.964C172.582 115.607 171.653 114.56 171.241 114.207L164.74 109.435Z" stroke="black" mask="url(#path-14-inside-1_138_1424)"/>
<path d="M151.635 108.586C156.588 111.301 161.06 109.717 162.676 108.586L160.716 106.783C160.647 106.253 160.55 105.065 160.716 104.556C161.403 104.203 163.109 102.965 164.43 100.844L167.113 96.3902L167.423 95.3297L167.732 95.2237V92.3603L167.423 92.0421L166.804 91.2998C166.872 91.017 167.154 90.4302 167.732 90.3453C167.939 90.3453 168.516 90.4938 169.177 91.0877C169.116 91.0343 169.28 89.603 168.867 88.8606L167.423 86.7396C167.555 86.3306 168.065 85.5864 169.064 85.7617C169.101 85.7682 169.138 85.776 169.177 85.7851H169.59L169.064 84.6186C168.757 83.9823 167.712 82.4127 165.978 81.2249C165.531 80.8007 164.141 79.9523 162.16 79.9523H158.136L157.723 80.1644L157.414 80.2705H156.279C156.21 79.8816 156.279 79.0403 157.104 78.7858C157.93 78.5312 157.448 78.4676 157.104 78.4676L156.175 78.2555C155.419 78.1848 153.637 78.107 152.564 78.3616C151.222 78.6797 149.262 81.1189 149.262 82.8157L148.849 83.1338L148.436 82.8157C147.955 82.7096 146.847 82.5612 146.27 82.8157C145.692 83.0702 146.029 83.2752 146.27 83.3459C146.614 83.4873 147.301 83.9398 147.301 84.6186C147.336 84.8307 147.384 85.2973 147.301 85.467C147.219 85.6367 147.061 85.6084 146.992 85.573C146.201 86.174 144.619 87.4819 144.619 87.9061C144.619 88.3303 144.894 88.0829 145.031 87.9061C146.187 87.5668 147.026 88.5425 147.301 89.0727V91.2998L146.786 92.0421L146.476 92.3603V95.2237L146.786 95.3297L146.992 96.3902L149.778 100.844C150.603 102.372 152.53 103.955 153.389 104.556C153.72 105.15 153.527 106.288 153.389 106.783L151.635 108.586Z" stroke="black" mask="url(#path-14-inside-1_138_1424)"/>
<path d="M153.227 118.979L149.719 120.506C149.296 120.701 148.705 121.707 149.719 122.267L153.227 123.857C153.64 123.964 154.362 123.327 153.743 122.691L151.37 121.63C151.238 121.583 151.053 121.454 151.37 121.312L153.743 120.252C154.053 120.04 154.156 119.085 153.227 118.979Z" stroke="black" mask="url(#path-14-inside-1_138_1424)"/>
</g>
</g>
<defs>
<filter id="filter0_d_138_1424" x="123.522" y="64.0302" width="68.8955" height="68.896" filterUnits="userSpaceOnUse" color-interpolation-filters="sRGB">
<feFlood flood-opacity="0" result="BackgroundImageFix"/>
<feColorMatrix in="SourceAlpha" type="matrix" values="0 0 0 0 0 0 0 0 0 0 0 0 0 0 0 0 0 0 127 0" result="hardAlpha"/>
<feOffset dy="4"/>
<feGaussianBlur stdDeviation="2"/>
<feComposite in2="hardAlpha" operator="out"/>
<feColorMatrix type="matrix" values="0 0 0 0 0 0 0 0 0 0 0 0 0 0 0 0 0 0 0.25 0"/>
<feBlend mode="normal" in2="BackgroundImageFix" result="effect1_dropShadow_138_1424"/>
<feBlend mode="normal" in="SourceGraphic" in2="effect1_dropShadow_138_1424" result="shape"/>
</filter>
<filter id="filter1_i_138_1424" x="134.522" y="71.0302" width="47" height="51" filterUnits="userSpaceOnUse" color-interpolation-filters="sRGB">
<feFlood flood-opacity="0" result="BackgroundImageFix"/>
<feBlend mode="normal" in="SourceGraphic" in2="BackgroundImageFix" result="shape"/>
<feColorMatrix in="SourceAlpha" type="matrix" values="0 0 0 0 0 0 0 0 0 0 0 0 0 0 0 0 0 0 127 0" result="hardAlpha"/>
<feOffset dy="4"/>
<feGaussianBlur stdDeviation="2"/>
<feComposite in2="hardAlpha" operator="arithmetic" k2="-1" k3="1"/>
<feColorMatrix type="matrix" values="0 0 0 0 0 0 0 0 0 0 0 0 0 0 0 0 0 0 0.25 0"/>
<feBlend mode="normal" in2="shape" result="effect1_innerShadow_138_1424"/>
</filter>
<linearGradient id="paint0_linear_138_1424" x1="158.853" y1="221.242" x2="158.853" y2="347.856" gradientUnits="userSpaceOnUse">
<stop stop-color="#0F5EF5"/>
<stop offset="1" stop-color="#A6C2F7" stop-opacity="0.7"/>
</linearGradient>
<linearGradient id="paint1_linear_138_1424" x1="158.83" y1="217.903" x2="158.83" y2="289.804" gradientUnits="userSpaceOnUse">
<stop stop-color="#0F5EF5"/>
<stop offset="1" stop-color="#A6C2F7" stop-opacity="0.7"/>
</linearGradient>
<linearGradient id="paint2_linear_138_1424" x1="86.9717" y1="194.731" x2="126.453" y2="194.731" gradientUnits="userSpaceOnUse">
<stop stop-color="#0F5EF5"/>
<stop offset="1" stop-color="#0F5EF5"/>
</linearGradient>
<linearGradient id="paint3_linear_138_1424" x1="225.524" y1="196.509" x2="198.653" y2="202.465" gradientUnits="userSpaceOnUse">
<stop stop-color="#0F5EF5"/>
<stop offset="1" stop-color="#0F5EF5"/>
</linearGradient>
<linearGradient id="paint4_linear_138_1424" x1="129.068" y1="80.3462" x2="196.579" y2="166.06" gradientUnits="userSpaceOnUse">
<stop stop-color="#0F5EF5"/>
<stop offset="0.5125" stop-color="#0F5EF5"/>
<stop offset="1" stop-color="#0F5EF5"/>
</linearGradient>
<radialGradient id="paint5_radial_138_1424" cx="0" cy="0" r="1" gradientUnits="userSpaceOnUse" gradientTransform="translate(157.942 159.007) rotate(30.8294) scale(50.6308 49.5978)">
<stop stop-color="#101017"/>
<stop offset="0.408333" stop-color="#101017"/>
<stop offset="0.647916" stop-color="#101017"/>
<stop offset="1" stop-color="#1E1E1E"/>
</radialGradient>
<linearGradient id="paint6_linear_138_1424" x1="136.405" y1="158.097" x2="141.288" y2="182.193" gradientUnits="userSpaceOnUse">
<stop stop-color="#0F5EF5"/>
<stop offset="1" stop-color="#0F5EF5"/>
</linearGradient>
<linearGradient id="paint7_linear_138_1424" x1="136.405" y1="141.636" x2="170.045" y2="196.705" gradientUnits="userSpaceOnUse">
<stop stop-color="#0F5EF5"/>
<stop offset="1" stop-color="#0F5EF5"/>
</linearGradient>
</defs>
</svg>
