<svg width="323" height="472" viewBox="0 0 323 472" fill="none" xmlns="http://www.w3.org/2000/svg">
<g filter="url(#filter0_d_135_193)">
<path fill-rule="evenodd" clip-rule="evenodd" d="M159.76 454.719C166.991 431.938 173.54 405.042 178.669 375.68C188.573 318.991 190.9 266.207 186.369 231.673C177.42 211.149 168.048 197.275 159.41 192.606C150.674 197.437 141.16 211.816 132.061 233.062C127.761 267.007 130.014 317.894 139.539 372.416C144.938 403.319 151.98 431.419 159.76 454.719Z" fill="#FED381"/>
</g>
<path fill-rule="evenodd" clip-rule="evenodd" d="M159.613 348.826C163.858 337.822 167.703 324.83 170.715 310.646C176.531 283.263 177.897 257.765 175.237 241.084C169.982 231.17 164.479 224.467 159.407 222.212C154.277 224.546 148.691 231.491 143.348 241.754C140.823 258.152 142.146 282.733 147.739 309.07C150.909 323.998 155.044 337.571 159.613 348.826Z" fill="white"/>
<ellipse cx="159.308" cy="254.823" rx="17.1879" ry="35.9505" fill="white"/>
<path fill-rule="evenodd" clip-rule="evenodd" d="M190.339 227.635C180.934 224.976 170.331 223.481 159.112 223.481C148.172 223.481 137.817 224.903 128.588 227.439V246.788C137.817 244.252 148.172 242.83 159.112 242.83C170.331 242.83 180.934 244.325 190.339 246.983V227.635Z" fill="#242E22"/>
<path fill-rule="evenodd" clip-rule="evenodd" d="M126.93 224.414L126.93 137.442C126.581 137.433 126.23 137.428 125.877 137.428C104.654 137.428 87.4492 154.633 87.4492 175.856L87.4492 247.582C87.4492 249.76 87.6303 251.895 87.9784 253.974C97.8585 242.187 111.18 232.088 126.93 224.414Z" fill="url(#paint0_linear_135_193)"/>
<path fill-rule="evenodd" clip-rule="evenodd" d="M186.521 226.192L186.521 139.22C186.871 139.211 187.222 139.206 187.574 139.206C208.797 139.206 226.002 156.411 226.002 177.634L226.002 249.36C226.002 251.538 225.821 253.673 225.473 255.752C215.593 243.965 202.271 233.866 186.521 226.192Z" fill="url(#paint1_linear_135_193)"/>
<path fill-rule="evenodd" clip-rule="evenodd" d="M119.369 140.781C115.52 155.885 112.805 173.182 111.663 191.67C110.786 205.878 110.916 219.548 111.909 232.196C116.903 228.806 122.297 225.722 128.038 222.983L127.076 140.272C126.742 140.259 126.407 140.251 126.072 140.247C123.78 140.22 121.54 140.404 119.369 140.781ZM205.555 194.33C206.713 209.822 206.702 224.642 205.689 238.171C199.402 233.381 192.419 229.072 184.865 225.333L183.903 142.622C184.236 142.617 184.571 142.617 184.906 142.62C189.425 142.673 193.762 143.539 197.776 145.078C201.502 159.845 204.226 176.561 205.555 194.33Z" fill="#421116"/>
<path fill-rule="evenodd" clip-rule="evenodd" d="M125.803 239.512C138.72 235.59 153.362 233.748 168.774 234.557C176.95 234.986 184.833 236.135 192.289 237.903C200.866 218.174 205.261 185.884 202.98 149.814C200.226 106.264 188.517 69.5145 174.154 54.2811C170.074 49.0264 165.42 45.9558 160.336 45.5806C139.111 44.0141 118.439 90.0157 114.162 148.328C111.379 186.281 116.227 220.095 125.803 239.512Z" fill="url(#paint2_linear_135_193)"/>
<path fill-rule="evenodd" clip-rule="evenodd" d="M203.307 155.972C203.22 153.933 203.111 151.88 202.981 149.815C202.633 144.318 202.143 138.93 201.523 133.68C188.028 132.147 173.588 131.316 158.578 131.316C143.558 131.316 129.109 132.148 115.607 133.683C115.013 138.46 114.528 143.349 114.163 148.328C113.974 150.902 113.821 153.457 113.701 155.989C127.746 154.312 142.849 153.4 158.578 153.4C174.252 153.4 189.304 154.306 203.307 155.972ZM113.841 184.944C113.418 177.895 113.282 170.52 113.458 162.909C128.473 160.957 144.771 159.888 161.803 159.888C176.354 159.888 190.37 160.668 203.507 162.113C203.675 169.716 203.544 177.093 203.137 184.156C190.107 182.738 176.218 181.972 161.803 181.972C144.916 181.972 128.75 183.023 113.841 184.944Z" fill="url(#paint3_radial_135_193)"/>
<ellipse cx="160.111" cy="167.172" rx="8.29489" ry="27.8224" fill="url(#paint4_linear_135_193)"/>
<path d="M168.406 167.037C168.406 178.051 168.192 188.958 167.775 199.133C167.358 209.309 166.747 218.555 165.977 226.343C165.206 234.131 164.292 240.309 163.286 244.524C162.279 248.739 161.201 250.908 160.111 250.908C159.022 250.908 157.943 248.739 156.937 244.524C155.931 240.309 155.016 234.131 154.246 226.343C153.476 218.555 152.865 209.309 152.448 199.133C152.031 188.958 151.816 178.051 151.816 167.037L160.111 167.037H168.406Z" fill="url(#paint5_linear_135_193)"/>
<g filter="url(#filter1_d_135_193)">
<circle cx="158.448" cy="95.448" r="30.448" fill="#C4C4C4"/>
<g filter="url(#filter2_i_135_193)">
<circle cx="158.5" cy="95.5" r="23.5" fill="#6CCAD7"/>
</g>
<mask id="mask0_135_193" style="mask-type:alpha" maskUnits="userSpaceOnUse" x="134" y="71" width="48" height="48">
<circle cx="158.32" cy="95.2236" r="23.6803" fill="#6CCAD7"/>
</mask>
<g mask="url(#mask0_135_193)">
<mask id="path-15-inside-1_135_193" fill="white">
<path d="M161.606 124.827L165.114 123.3C165.537 123.106 166.128 122.1 165.114 121.54L161.606 119.949C161.193 119.843 160.471 120.479 161.09 121.116L163.463 122.176C163.595 122.223 163.78 122.353 163.463 122.494L161.09 123.555C160.78 123.767 160.677 124.721 161.606 124.827Z"/>
<path d="M165.217 110.404C159.026 115.41 152.869 112.49 150.565 110.404L147.005 112.791L143.445 115.177C143.067 115.53 142.248 116.577 142.001 117.934L140.35 126.736H155.621L158.82 117.404C159.233 116.873 160.058 116.661 160.161 117.934L157.169 126.736H174.607L173.472 117.934C173.059 116.577 172.131 115.53 171.718 115.177L165.217 110.404Z"/>
<path d="M152.113 109.556C157.066 112.271 161.537 110.687 163.154 109.556L161.193 107.753C161.124 107.223 161.028 106.035 161.193 105.526C161.881 105.173 163.587 103.935 164.908 101.814L167.591 97.3601L167.9 96.2996L168.21 96.1935V93.3301L167.9 93.012L167.281 92.2696C167.35 91.9868 167.632 91.4 168.21 91.3152C168.416 91.3152 168.994 91.4636 169.654 92.0575C169.594 92.0041 169.758 90.5728 169.345 89.8305L167.9 87.7094C168.033 87.3004 168.543 86.5562 169.541 86.7316C169.578 86.7381 169.616 86.7459 169.654 86.755H170.067L169.541 85.5884C169.235 84.9521 168.189 83.3826 166.456 82.1948C166.008 81.7706 164.619 80.9222 162.638 80.9222H158.613L158.201 81.1343L157.891 81.2403H156.756C156.687 80.8515 156.756 80.0101 157.582 79.7556C158.407 79.5011 157.926 79.4375 157.582 79.4375L156.653 79.2254C155.896 79.1547 154.115 79.0769 153.041 79.3314C151.7 79.6496 149.74 82.0887 149.74 83.7855L149.327 84.1037L148.914 83.7855C148.432 83.6795 147.325 83.531 146.747 83.7855C146.169 84.0401 146.506 84.2451 146.747 84.3158C147.091 84.4572 147.779 84.9097 147.779 85.5884C147.813 85.8005 147.862 86.2671 147.779 86.4368C147.696 86.6065 147.538 86.5782 147.469 86.5429C146.678 87.1438 145.096 88.4518 145.096 88.876C145.096 89.3002 145.371 89.0527 145.509 88.876C146.665 88.5366 147.504 89.5123 147.779 90.0426V92.2696L147.263 93.012L146.953 93.3301V96.1935L147.263 96.2996L147.469 97.3601L150.255 101.814C151.081 103.341 153.007 104.925 153.867 105.526C154.197 106.12 154.005 107.258 153.867 107.753L152.113 109.556Z"/>
<path d="M153.705 119.949L150.196 121.476C149.774 121.671 149.182 122.677 150.196 123.237L153.705 124.827C154.117 124.933 154.84 124.297 154.221 123.661L151.847 122.6C151.716 122.553 151.531 122.423 151.847 122.282L154.221 121.222C154.53 121.009 154.633 120.055 153.705 119.949Z"/>
</mask>
<path d="M161.606 124.827L165.114 123.3C165.537 123.106 166.128 122.1 165.114 121.54L161.606 119.949C161.193 119.843 160.471 120.479 161.09 121.116L163.463 122.176C163.595 122.223 163.78 122.353 163.463 122.494L161.09 123.555C160.78 123.767 160.677 124.721 161.606 124.827Z" fill="#D9D9D9"/>
<path d="M165.217 110.404C159.026 115.41 152.869 112.49 150.565 110.404L147.005 112.791L143.445 115.177C143.067 115.53 142.248 116.577 142.001 117.934L140.35 126.736H155.621L158.82 117.404C159.233 116.873 160.058 116.661 160.161 117.934L157.169 126.736H174.607L173.472 117.934C173.059 116.577 172.131 115.53 171.718 115.177L165.217 110.404Z" fill="#D9D9D9"/>
<path d="M152.113 109.556C157.066 112.271 161.537 110.687 163.154 109.556L161.193 107.753C161.124 107.223 161.028 106.035 161.193 105.526C161.881 105.173 163.587 103.935 164.908 101.814L167.591 97.3601L167.9 96.2996L168.21 96.1935V93.3301L167.9 93.012L167.281 92.2696C167.35 91.9868 167.632 91.4 168.21 91.3152C168.416 91.3152 168.994 91.4636 169.654 92.0575C169.594 92.0041 169.758 90.5728 169.345 89.8305L167.9 87.7094C168.033 87.3004 168.543 86.5562 169.541 86.7316C169.578 86.7381 169.616 86.7459 169.654 86.755H170.067L169.541 85.5884C169.235 84.9521 168.189 83.3826 166.456 82.1948C166.008 81.7706 164.619 80.9222 162.638 80.9222H158.613L158.201 81.1343L157.891 81.2403H156.756C156.687 80.8515 156.756 80.0101 157.582 79.7556C158.407 79.5011 157.926 79.4375 157.582 79.4375L156.653 79.2254C155.896 79.1547 154.115 79.0769 153.041 79.3314C151.7 79.6496 149.74 82.0887 149.74 83.7855L149.327 84.1037L148.914 83.7855C148.432 83.6795 147.325 83.531 146.747 83.7855C146.169 84.0401 146.506 84.2451 146.747 84.3158C147.091 84.4572 147.779 84.9097 147.779 85.5884C147.813 85.8005 147.862 86.2671 147.779 86.4368C147.696 86.6065 147.538 86.5782 147.469 86.5429C146.678 87.1438 145.096 88.4518 145.096 88.876C145.096 89.3002 145.371 89.0527 145.509 88.876C146.665 88.5366 147.504 89.5123 147.779 90.0426V92.2696L147.263 93.012L146.953 93.3301V96.1935L147.263 96.2996L147.469 97.3601L150.255 101.814C151.081 103.341 153.007 104.925 153.867 105.526C154.197 106.12 154.005 107.258 153.867 107.753L152.113 109.556Z" fill="#D9D9D9"/>
<path d="M161.606 124.827L165.114 123.3C165.537 123.106 166.128 122.1 165.114 121.54L161.606 119.949C161.193 119.843 160.471 120.479 161.09 121.116L163.463 122.176C163.595 122.223 163.78 122.353 163.463 122.494L161.09 123.555C160.78 123.767 160.677 124.721 161.606 124.827Z" stroke="black" mask="url(#path-15-inside-1_135_193)"/>
<path d="M165.217 110.404C159.026 115.41 152.869 112.49 150.565 110.404L147.005 112.791L143.445 115.177C143.067 115.53 142.248 116.577 142.001 117.934L140.35 126.736H155.621L158.82 117.404C159.233 116.873 160.058 116.661 160.161 117.934L157.169 126.736H174.607L173.472 117.934C173.059 116.577 172.131 115.53 171.718 115.177L165.217 110.404Z" stroke="black" mask="url(#path-15-inside-1_135_193)"/>
<path d="M152.113 109.556C157.066 112.271 161.537 110.687 163.154 109.556L161.193 107.753C161.124 107.223 161.028 106.035 161.193 105.526C161.881 105.173 163.587 103.935 164.908 101.814L167.591 97.3601L167.9 96.2996L168.21 96.1935V93.3301L167.9 93.012L167.281 92.2696C167.35 91.9868 167.632 91.4 168.21 91.3152C168.416 91.3152 168.994 91.4636 169.654 92.0575C169.594 92.0041 169.758 90.5728 169.345 89.8305L167.9 87.7094C168.033 87.3004 168.543 86.5562 169.541 86.7316C169.578 86.7381 169.616 86.7459 169.654 86.755H170.067L169.541 85.5884C169.235 84.9521 168.189 83.3826 166.456 82.1948C166.008 81.7706 164.619 80.9222 162.638 80.9222H158.613L158.201 81.1343L157.891 81.2403H156.756C156.687 80.8515 156.756 80.0101 157.582 79.7556C158.407 79.5011 157.926 79.4375 157.582 79.4375L156.653 79.2254C155.896 79.1547 154.115 79.0769 153.041 79.3314C151.7 79.6496 149.74 82.0887 149.74 83.7855L149.327 84.1037L148.914 83.7855C148.432 83.6795 147.325 83.531 146.747 83.7855C146.169 84.0401 146.506 84.2451 146.747 84.3158C147.091 84.4572 147.779 84.9097 147.779 85.5884C147.813 85.8005 147.862 86.2671 147.779 86.4368C147.696 86.6065 147.538 86.5782 147.469 86.5429C146.678 87.1438 145.096 88.4518 145.096 88.876C145.096 89.3002 145.371 89.0527 145.509 88.876C146.665 88.5366 147.504 89.5123 147.779 90.0426V92.2696L147.263 93.012L146.953 93.3301V96.1935L147.263 96.2996L147.469 97.3601L150.255 101.814C151.081 103.341 153.007 104.925 153.867 105.526C154.197 106.12 154.005 107.258 153.867 107.753L152.113 109.556Z" stroke="black" mask="url(#path-15-inside-1_135_193)"/>
<path d="M153.705 119.949L150.196 121.476C149.774 121.671 149.182 122.677 150.196 123.237L153.705 124.827C154.117 124.933 154.84 124.297 154.221 123.661L151.847 122.6C151.716 122.553 151.531 122.423 151.847 122.282L154.221 121.222C154.53 121.009 154.633 120.055 153.705 119.949Z" stroke="black" mask="url(#path-15-inside-1_135_193)"/>
</g>
</g>
<defs>
<filter id="filter0_d_135_193" x="129.97" y="192.606" width="74.6191" height="279.113" filterUnits="userSpaceOnUse" color-interpolation-filters="sRGB">
<feFlood flood-opacity="0" result="BackgroundImageFix"/>
<feColorMatrix in="SourceAlpha" type="matrix" values="0 0 0 0 0 0 0 0 0 0 0 0 0 0 0 0 0 0 127 0" result="hardAlpha"/>
<feOffset dx="16" dy="17"/>
<feComposite in2="hardAlpha" operator="out"/>
<feColorMatrix type="matrix" values="0 0 0 0 0 0 0 0 0 0 0 0 0 0 0 0 0 0 0.39 0"/>
<feBlend mode="normal" in2="BackgroundImageFix" result="effect1_dropShadow_135_193"/>
<feBlend mode="normal" in="SourceGraphic" in2="effect1_dropShadow_135_193" result="shape"/>
</filter>
<filter id="filter1_d_135_193" x="124" y="65" width="68.8965" height="68.896" filterUnits="userSpaceOnUse" color-interpolation-filters="sRGB">
<feFlood flood-opacity="0" result="BackgroundImageFix"/>
<feColorMatrix in="SourceAlpha" type="matrix" values="0 0 0 0 0 0 0 0 0 0 0 0 0 0 0 0 0 0 127 0" result="hardAlpha"/>
<feOffset dy="4"/>
<feGaussianBlur stdDeviation="2"/>
<feComposite in2="hardAlpha" operator="out"/>
<feColorMatrix type="matrix" values="0 0 0 0 0 0 0 0 0 0 0 0 0 0 0 0 0 0 0.25 0"/>
<feBlend mode="normal" in2="BackgroundImageFix" result="effect1_dropShadow_135_193"/>
<feBlend mode="normal" in="SourceGraphic" in2="effect1_dropShadow_135_193" result="shape"/>
</filter>
<filter id="filter2_i_135_193" x="135" y="72" width="47" height="51" filterUnits="userSpaceOnUse" color-interpolation-filters="sRGB">
<feFlood flood-opacity="0" result="BackgroundImageFix"/>
<feBlend mode="normal" in="SourceGraphic" in2="BackgroundImageFix" result="shape"/>
<feColorMatrix in="SourceAlpha" type="matrix" values="0 0 0 0 0 0 0 0 0 0 0 0 0 0 0 0 0 0 127 0" result="hardAlpha"/>
<feOffset dy="4"/>
<feGaussianBlur stdDeviation="2"/>
<feComposite in2="hardAlpha" operator="arithmetic" k2="-1" k3="1"/>
<feColorMatrix type="matrix" values="0 0 0 0 0 0 0 0 0 0 0 0 0 0 0 0 0 0 0.25 0"/>
<feBlend mode="normal" in2="shape" result="effect1_innerShadow_135_193"/>
</filter>
<linearGradient id="paint0_linear_135_193" x1="87.4492" y1="195.701" x2="126.93" y2="195.701" gradientUnits="userSpaceOnUse">
<stop stop-color="#0F5EF5"/>
<stop offset="1" stop-color="#0F5EF5"/>
</linearGradient>
<linearGradient id="paint1_linear_135_193" x1="226.002" y1="197.479" x2="199.131" y2="203.435" gradientUnits="userSpaceOnUse">
<stop stop-color="#0F5EF5"/>
<stop offset="1" stop-color="#0F5EF5"/>
</linearGradient>
<linearGradient id="paint2_linear_135_193" x1="129.545" y1="81.316" x2="197.056" y2="167.03" gradientUnits="userSpaceOnUse">
<stop stop-color="#0F5EF5"/>
<stop offset="0.5125" stop-color="#0F5EF5"/>
<stop offset="1" stop-color="#0F5EF5"/>
</linearGradient>
<radialGradient id="paint3_radial_135_193" cx="0" cy="0" r="1" gradientUnits="userSpaceOnUse" gradientTransform="translate(158.419 159.977) rotate(30.8294) scale(50.6308 49.5978)">
<stop stop-color="#101017"/>
<stop offset="0.408333" stop-color="#101017"/>
<stop offset="0.647916" stop-color="#101017"/>
<stop offset="1" stop-color="#1E1E1E"/>
</radialGradient>
<linearGradient id="paint4_linear_135_193" x1="136.882" y1="159.067" x2="141.765" y2="183.163" gradientUnits="userSpaceOnUse">
<stop stop-color="#0F5EF5"/>
<stop offset="1" stop-color="#0F5EF5"/>
</linearGradient>
<linearGradient id="paint5_linear_135_193" x1="136.882" y1="142.606" x2="170.523" y2="197.675" gradientUnits="userSpaceOnUse">
<stop stop-color="#0F5EF5"/>
<stop offset="1" stop-color="#0F5EF5"/>
</linearGradient>
</defs>
</svg>
